# xmcd
#
# Track frame offsets:
#	182
#	18237
#	39082
#
# Disc length: 773 seconds
#
# Revision: 0
# Processed by: cddbd v1.4PL0 Copyright (c) Steve Scherf et al.
# Submitted via: EasyCDDAExtractor 5.0.0.0
#
DISCID=13030303
DTITLE=East 17 - Each Time
DYEAR=1900
DGENRE=
TTITLE0=Each Time(Radio Edit)
TTITLE1=Each Time(K-Gee Remix)
TTITLE2=Resurrection Album Sampler(Each Time UK CD Single)
EXTD=
EXTT0=
EXTT1=
EXTT2=
PLAYORDER=
